<svg width="823" height="132" xmlns="http://www.w3.org/2000/svg" xmlns:xlink="http://www.w3.org/1999/xlink" xml:space="preserve" overflow="hidden"><defs><clipPath id="clip0"><rect x="0" y="0" width="823" height="132"/></clipPath></defs><g clip-path="url(#clip0)"><path d="M96.1041 2.00007C69.5494 1.9863 41.8435 7.99039 13.8795 15.7787 10.3287 16.4968 6.86342 18.8291 5.03154 21.714 3.3469 24.4332 2.73519 27.1627 2.20937 30.0236-0.50633 45.3032-0.176476 60.3071 0.387236 76.9325 0.511021 80.739 1.07473 85.249 2.84526 87.9922 4.69447 90.7633 7.86381 92.5229 11.6485 93.0993 16.4837 93.8112 21.3341 94.4155 26.196 94.9111L25.1234 124.925C24.9585 127.313 26.1202 129.297 27.5641 130.44 28.8565 131.426 30.2968 131.865 31.775 131.975 34.7314 132.2 38.1996 130.93 39.9217 127.638 47.4672 113.062 52.2007 106.626 61.6365 96.9435 86.2421 97.5507 107.723 96.1773 132.043 94.3727 140.64 94.1485 146.542 87.0916 148.103 81.4567 152.768 66.8531 153.493 48.8264 153.988 30.6033 154.197 23.3808 151.702 16.2895 147.285 12.5421 143.084 9.12252 137.997 7.88351 133.335 6.61372 120.387 3.67018 107.434 2.08991 96.1041 2.00007ZM131.476 13.4221C136.144 14.6955 140.259 15.9204 142.854 18.0357 147.185 22.6563 147.041 25.7306 146.979 30.717 146.491 48.3916 145.645 65.5453 141.671 78.5443 139.96 83.3924 136.976 86.8431 131.338 87.3644 106.561 89.2034 85.063 90.6253 60.1583 89.9145 59.1781 89.883 58.229 90.2601 57.5354 90.9564 47.0717 101.564 41.7197 108.935 33.7447 124.346 33.5592 124.698 33.1568 124.912 32.6621 124.95 32.3286 124.932 32.1943 124.674 32.1738 124.439L33.2532 91.8915C33.3185 90.1351 31.8746 88.4581 30.1355 88.2683 24.3197 87.7108 18.5195 86.9974 12.7416 86.129 10.246 85.7457 9.32469 85.0592 8.64081 84.0376 7.45131 81.1908 7.47874 79.4312 7.38599 76.6945 6.82913 60.2172 6.55414 45.8176 9.07388 31.4901 9.30773 29.3711 10.0981 27.2043 10.9372 25.3926 12.3259 23.2116 14.4537 22.8907 16.5883 22.2972 43.937 14.7161 70.6942 9.04644 95.884 9.02905 108.231 9.47791 121.198 10.7202 131.476 13.4221ZM37.0173 41.3384C33.2496 45.8691 33.6245 52.0217 36.5359 56.1419 38.0552 58.2986 40.4273 60.0346 43.3148 60.4277 47.0648 60.7385 49.4438 59.2133 52.0116 57.4603 56.6624 53.402 57.1333 46.3212 53.5962 41.2072 51.795 38.6021 48.9144 37.0388 45.9717 36.9283 41.9431 36.9696 39.2068 38.7745 37.0173 41.3351ZM77.7719 37.6391C74.0183 37.7601 70.9829 40.3689 69.1301 43.1846 67.0091 46.4042 65.7716 50.4345 67.4869 54.3856 70.7869 61.9877 82.1892 61.8942 86.7368 54.1682 88.834 50.607 88.2977 46.5592 86.7368 43.6229 85.1832 40.6895 82.832 38.2985 79.4118 37.7496 78.8698 37.6601 78.3209 37.6232 77.7719 37.6391ZM110.858 38.3535C109.689 38.326 108.486 38.4365 107.358 38.7365 102.848 39.9443 99.0089 44.6167 99.5896 50.5968 99.8852 53.6056 101.264 56.539 103.749 58.5609 106.234 60.5795 109.844 61.4838 113.649 60.7005 118.021 59.8031 120.73 56.2662 121.634 52.8499 122.538 49.4339 122.312 45.952 120.211 43.1295 117.997 40.1729 114.546 38.4104 110.861 38.3535ZM45.666 43.9541C46.508 43.9609 47.1717 44.2301 47.8555 45.217 49.3854 47.4323 48.9592 50.7899 47.4156 52.1358 45.879 53.4817 44.9201 53.5987 44.2463 53.5092 43.5725 53.4161 42.8883 52.9502 42.2765 52.0804 41.1076 50.424 40.764 47.7464 42.3007 45.8347 43.1189 44.7442 44.6209 44.0645 45.6693 43.9541ZM78.2635 44.7235C78.3941 44.7442 79.8586 45.5966 80.5598 46.9182 81.261 48.2398 81.3917 49.4683 80.7248 50.5968 78.7413 53.9646 74.5236 53.0535 73.8841 51.587 73.6437 51.028 73.8256 48.7814 74.9841 47.032 76.1357 45.2757 77.5864 44.6167 78.2635 44.7203ZM114.577 47.3048C114.79 47.591 115.309 49.5133 114.907 51.0385 114.502 52.5637 113.842 53.5056 112.226 53.8371 110.156 54.2649 108.995 53.8371 108.125 53.1227 107.252 52.4151 106.664 51.2178 106.537 49.9375 106.227 46.7628 107.362 46.0281 109.163 45.5448 111.26 45.0271 113.632 45.9314 114.577 47.3048Z" fill="#FFFFFF" fill-rule="evenodd"/><path d="M198 16.3515C198.055 15.458 198.381 14.6536 198.986 13.9419 199.582 13.2353 200.469 12.8423 201.393 12.8766L224.836 12.8766C225.626 12.8766 226.44 13.2065 227.281 13.8629 228.081 14.4378 228.552 15.366 228.545 16.3515L228.545 53.7952 267.768 53.7952 267.768 16.3515C267.768 15.4031 268.098 14.5883 268.754 13.9044 269.414 13.2169 270.265 12.873 271.319 12.873L294.446 12.873C295.497 12.873 296.418 13.1379 297.208 13.6637 297.997 14.1931 298.392 15.035 298.392 16.1935L298.392 126.706C298.392 127.864 298.049 128.734 297.362 129.311 296.682 129.892 295.786 130.181 294.683 130.181L271.319 130.181C270.269 130.181 269.414 129.892 268.754 129.311 268.098 128.734 267.768 127.868 267.768 126.706L267.768 81.8375 228.545 81.8375 228.545 126.706C228.545 127.813 228.188 128.665 227.48 129.274 226.769 129.879 225.808 130.181 224.596 130.181L201.393 130.181C199.185 130.181 198.055 129.153 198 127.101L198 16.3515ZM413.933 128.84C413.25 129.418 412.525 129.786 411.763 129.944 411.052 130.097 410.324 130.178 409.596 130.184L397.679 130.184C396.731 130.184 395.914 130.013 395.23 129.669 394.543 129.325 393.966 128.865 393.493 128.287 393.008 127.687 392.61 127.022 392.311 126.311 391.992 125.567 391.731 124.802 391.521 124.021L389.076 113.908C388.286 115.541 387.142 117.397 385.641 119.477 384.017 121.684 382.091 123.651 379.92 125.32 377.605 127.143 374.84 128.669 371.633 129.906 368.422 131.144 364.74 131.762 360.581 131.762 354.585 131.762 349.138 130.604 344.244 128.287 339.453 126.046 335.19 122.816 331.736 118.807 328.292 114.805 325.62 110.131 323.728 104.782 321.832 99.4405 320.884 93.7379 320.884 87.6845L320.884 35.9413C320.884 33.9409 321.32 32.4285 322.189 31.4007 323.054 30.3729 324.435 29.8608 326.331 29.8608L344.56 29.8608C346.827 29.8608 348.376 30.2386 349.217 31.0055 350.058 31.7684 350.481 33.2567 350.481 35.4671L350.481 86.8905C350.481 89.159 350.996 91.3041 352.02 93.3323 353.046 95.3604 354.4 97.1479 356.086 98.7015 357.769 100.255 359.675 101.482 361.807 102.376 363.936 103.27 366.107 103.717 368.319 103.717 370.211 103.717 372.172 103.27 374.198 102.376 376.238 101.471 378.127 100.258 379.8 98.7805 381.51 97.2818 382.918 95.5149 384.024 93.4867 385.13 91.4589 385.679 89.3139 385.679 87.0522L385.679 35.7042C385.679 34.8106 385.851 33.9167 386.194 33.0196 386.538 32.126 387.05 31.4386 387.733 30.964 388.417 30.5447 389.062 30.2559 389.667 30.0979 390.271 29.9398 390.972 29.8572 391.758 29.8572L409.596 29.8572C411.856 29.8572 413.487 30.414 414.487 31.5176 415.486 32.6244 415.987 34.099 415.987 35.9413L415.987 124.337C415.987 125.335 415.764 126.259 415.318 127.101 414.871 127.943 414.253 128.603 413.463 129.074L413.933 128.84ZM505.565 117.937C504.143 119.36 502.577 120.886 500.87 122.519 499.16 124.152 497.278 125.682 495.228 127.101 493.164 128.53 490.938 129.71 488.599 130.617 486.154 131.553 483.558 132.022 480.941 132 473.787 132 467.197 130.659 461.169 127.971 455.293 125.39 450.005 121.641 445.622 116.951 441.281 112.289 437.888 106.8 435.443 100.478 432.994 94.1605 431.771 87.3683 431.771 80.0984 431.771 72.7765 432.994 65.9706 435.443 59.6801 437.888 53.3895 441.281 47.9103 445.622 43.2495 450.001 38.5631 455.29 34.8262 461.169 32.2704 467.197 29.6096 473.787 28.2794 480.941 28.2794 483.836 28.2794 486.48 28.7024 488.874 29.5443 491.186 30.3454 493.383 31.4331 495.424 32.7825 497.398 34.099 499.212 35.5872 500.87 37.2441 502.525 38.9045 504.092 40.5234 505.565 42.1048L505.565 6.00182C505.565 4.31723 506.08 2.89788 507.103 1.73945 508.13 0.57741 509.669 0 511.723 0L529.478 0C530.165 0 530.886 0.144353 531.649 0.433058 532.411 0.725372 533.108 1.131 533.744 1.66042 534.372 2.18622 534.884 2.81885 535.279 3.55432 535.674 4.29341 535.873 5.10792 535.873 6.00182L535.873 124.1C535.873 128.157 533.744 130.184 529.478 130.184L514.01 130.184C512.959 130.184 512.142 130.047 511.565 129.786 510.991 129.528 510.49 129.135 510.102 128.641 509.662 128.061 509.305 127.424 509.037 126.747 508.666 125.856 508.271 124.973 507.856 124.1L505.565 117.937ZM460.184 80.0984C460.156 83.4203 460.706 86.7216 461.801 89.857 462.88 92.8819 464.418 95.5048 466.42 97.7148 468.443 99.9425 470.899 101.73 473.639 102.967 476.456 104.26 479.574 104.902 482.995 104.902 486.36 104.902 489.53 104.298 492.504 103.088 495.393 101.93 498.03 100.225 500.276 98.0688 502.505 95.9093 504.315 93.3514 505.606 90.5271 506.946 87.6296 507.698 84.5221 507.856 81.2052L507.856 80.0984C507.866 76.7923 507.224 73.5177 505.96 70.4632 504.737 67.469 502.955 64.7349 500.712 62.4058 498.463 60.0799 495.784 58.2152 492.82 56.9164 489.722 55.5588 486.374 54.872 482.995 54.902 479.574 54.902 476.456 55.5725 473.639 56.9164 470.823 58.2571 468.419 60.0893 466.42 62.4058 464.387 64.7775 462.821 67.5108 461.801 70.4632 460.716 73.5588 460.17 76.818 460.187 80.0984ZM627.505 117.937C626.082 119.36 624.516 120.886 622.806 122.519 621.096 124.152 619.214 125.682 617.164 127.101 615.099 128.53 612.874 129.71 610.535 130.617 608.09 131.553 605.494 132.022 602.877 132 595.723 132 589.133 130.659 583.109 127.971 577.233 125.391 571.94 121.642 567.558 116.951 563.221 112.289 559.824 106.8 557.379 100.478 554.934 94.1605 553.707 87.3683 553.707 80.0984 553.707 72.7765 554.934 65.9706 557.379 59.6801 559.824 53.3895 563.217 47.9103 567.558 43.2495 571.937 38.5627 577.229 34.8262 583.109 32.2704 589.133 29.6096 595.723 28.2794 602.877 28.2794 605.772 28.2794 608.416 28.7024 610.81 29.5443 613.121 30.3454 615.319 31.4331 617.359 32.7825 619.334 34.099 621.147 35.5872 622.806 37.2441 624.465 38.9045 626.028 40.5234 627.501 42.1048L627.501 6.00182C627.501 4.31723 628.016 2.89788 629.039 1.73945 630.07 0.57741 631.605 0 633.659 0L651.414 0C652.101 0 652.822 0.144353 653.585 0.433058 654.351 0.725372 655.048 1.131 655.68 1.66042 656.308 2.18622 656.823 2.81885 657.218 3.55432 657.61 4.29341 657.809 5.10792 657.809 6.00182L657.809 124.1C657.809 128.157 655.68 130.184 651.414 130.184L635.946 130.184C634.895 130.184 634.077 130.047 633.501 129.786 632.931 129.528 632.429 129.135 632.041 128.641 631.602 128.061 631.244 127.424 630.976 126.747 630.602 125.855 630.207 124.973 629.792 124.1L627.501 117.937ZM582.12 80.0984C582.092 83.4203 582.641 86.7216 583.737 89.857 584.819 92.8819 586.358 95.5048 588.356 97.7148 590.379 99.9429 592.838 101.731 595.579 102.967 598.395 104.26 601.51 104.902 604.931 104.902 608.296 104.902 611.466 104.298 614.44 103.088 617.328 101.93 619.969 100.226 622.215 98.0688 624.444 95.9086 626.247 93.3507 627.539 90.5271 628.881 87.6296 629.634 84.5221 629.792 81.2052L629.792 80.0984C629.802 76.7923 629.16 73.5177 627.896 70.4632 626.673 67.469 624.891 64.7349 622.648 62.4058 620.399 60.0799 617.72 58.2152 614.756 56.9164 611.658 55.5588 608.31 54.872 604.931 54.902 601.51 54.902 598.391 55.5725 595.579 56.9164 592.763 58.2571 590.355 60.0893 588.356 62.4058 586.323 64.7775 584.757 67.5108 583.737 70.4632 582.652 73.5588 582.106 76.818 582.123 80.0984ZM678.806 6.08085C678.806 4.39626 679.225 2.97691 680.067 1.81848 680.912 0.656444 682.358 0.0790331 684.408 0.0790331L703.743 0.0790331C704.272 0.0790331 704.825 0.223386 705.402 0.512091 706.01 0.823532 706.556 1.23891 707.019 1.73945 707.521 2.26525 707.94 2.89788 708.283 3.63336 708.627 4.37244 708.798 5.18695 708.798 6.08085L708.798 124.1C708.798 126.101 708.232 127.613 707.098 128.641 705.968 129.669 704.509 130.181 702.72 130.181L684.408 130.181C682.358 130.181 680.912 129.665 680.067 128.641 679.225 127.613 678.806 126.097 678.806 124.1L678.806 6.08085ZM811.715 118.174C807.14 122.405 801.848 125.789 796.089 128.167 790.257 130.572 784.007 131.794 777.698 131.762 770.486 131.762 763.676 130.446 757.257 127.809 750.982 125.271 745.25 121.559 740.367 116.871 735.5 112.175 731.589 106.582 728.844 100.399 726.001 94.0815 724.583 87.2103 724.583 79.7819 724.583 75.1485 725.146 70.6592 726.279 66.3141 727.375 62.0633 728.992 57.9641 731.094 54.1117 733.172 50.3195 735.717 46.8031 738.67 43.6446 741.613 40.4808 744.972 37.7302 748.654 35.4671 752.397 33.1748 756.433 31.3945 760.65 30.1733 765.087 28.8933 769.682 28.2552 774.301 28.2794 778.67 28.2794 782.904 28.8604 787.008 30.0188 791.112 31.1773 794.969 32.8099 798.572 34.9135 802.178 37.0207 805.475 39.5508 808.477 42.4999 811.437 45.4 814.033 48.6494 816.211 52.1763 818.367 55.6775 820.053 59.4491 821.225 63.3925 822.406 67.3694 823 71.4636 823 75.6743 823 78.4138 822.959 80.6516 822.88 82.3911 822.801 84.1269 822.392 85.512 821.657 86.5365 820.919 87.5675 819.7 88.276 817.986 88.6675 816.276 89.0663 813.762 89.2622 810.451 89.2622L753.627 89.2622C754.152 92.6311 755.217 95.4496 756.821 97.7184 758.308 99.8657 760.197 101.702 762.384 103.126 764.489 104.469 766.725 105.428 769.095 106.013 771.29 106.569 773.539 106.86 775.802 106.879 777.698 106.879 779.642 106.679 781.641 106.288 783.612 105.901 785.549 105.372 787.444 104.707 789.217 104.09 790.93 103.323 792.572 102.414 794.125 101.548 795.375 100.637 796.323 99.6914 797.164 99.0039 797.888 98.4918 798.493 98.1479 799.097 97.8043 799.743 97.6358 800.426 97.6358 801.113 97.6358 801.807 97.8765 802.521 98.3474 803.387 98.9526 804.19 99.6397 804.925 100.399L813.292 109.88C813.868 110.567 814.239 111.186 814.397 111.736 814.555 112.289 814.634 112.857 814.634 113.434 814.634 114.489 814.342 115.397 813.765 116.16 813.182 116.927 812.491 117.606 811.712 118.174ZM773.752 52.3722C771.698 52.3722 769.713 52.7811 767.793 53.596 765.846 54.4285 764.022 55.5325 762.384 56.8753 760.701 58.2434 759.19 59.797 757.848 61.5364 756.566 63.1763 755.467 64.9515 754.571 66.8298L794.9 66.8298C793.843 64.8493 792.644 62.9478 791.312 61.1409 790.044 59.4264 788.561 57.8858 786.892 56.5588 785.185 55.2163 783.265 54.1748 781.208 53.479 779.079 52.74 776.592 52.3722 773.752 52.3722Z" fill="#FFFFFF" fill-rule="evenodd"/></g></svg>